<svg xmlns="http://www.w3.org/2000/svg" width="109.342" height="116.21" viewBox="0, 0, 109.342, 116.21"><g fill="#1C75BC"><path d="M45.48 19.476h13.384V0H0v91.734h45.48V19.476zM30.43 77.712H17.644v3.48l-8.07-7.538 8.07-7.537v3.48h12.788v8.115zm3.07-9.89v-3.478H20.714v-8.116h12.788V52.75l8.07 7.537-8.07 7.536zm10.963-50.737h-6.15c-1.557 4.52-3.836 8.546-6.785 11.992l4.91 4.73-2.378 6.153-6.532-6.532-9.97 9.875-4.21-4.21L23.545 29.08c-2.252-2.61-4.098-5.49-5.496-8.576l-.64-1.413h6.162l.28.536c1.07 2.04 2.307 3.903 3.683 5.555 2.072-2.467 3.71-5.182 4.89-8.096H10.603v-6.007h13.975V7.164h5.914v3.914h13.974v6.007zM70.153 95.892c2.924 1.866 6.3 2.85 9.76 2.85s6.836-.987 9.758-2.85c2.327-1.482 4.3-3.47 5.778-5.81-1.48-2.337-3.45-4.324-5.777-5.808-.152-.096-.305-.19-.46-.282.387 1.056.597 2.197.597 3.387 0 5.464-4.43 9.895-9.897 9.895-5.466 0-9.896-4.43-9.896-9.896 0-1.19.21-2.332.596-3.388-.153.092-.307.186-.458.282-2.326 1.482-4.298 3.47-5.777 5.81 1.48 2.337 3.452 4.323 5.778 5.808z"/><path d="M79.91 86.37c0 2.05-1.66 3.712-3.71 3.712s-3.712-1.66-3.712-3.71 1.66-3.712 3.71-3.712 3.712 1.66 3.712 3.71z"/><path d="M109.343 24.476v91.734H50.48V24.476h58.863zM79.91 77.712c-8.632 0-16.116 5.027-19.793 12.37 3.677 7.345 11.16 12.372 19.793 12.372 8.632 0 16.116-5.028 19.793-12.37-3.677-7.345-11.16-12.372-19.793-12.372zM91.93 37.37c-3.883 0-6.67 2.025-8.038 5.305-1.203-3.61-4.49-5.306-8.038-5.306-3.442 0-6.013 1.586-7.49 4.21V37.86H57.76v5.358h3.55v13.952h-3.282v5.358h15.04v-5.358h-4.692V48.58c0-3.447 1.368-5.853 4.758-5.853 2.79 0 4.21 1.642 4.21 5.906V62.53h10.323v-5.358h-3.265V48.58c0-3.447 1.368-5.853 4.758-5.853 2.787 0 4.21 1.642 4.21 5.906v13.89h10.322l-.003-5.35h-3.28V45.9c0-5.85-4.05-8.53-8.48-8.53z"/></g></svg>