<svg xmlns="http://www.w3.org/2000/svg" width="456.701" height="116.21" viewBox="0, 0, 456.701, 116.21"><g fill="#1C75BC"><path d="M45.48 19.476h13.384V0H0v91.734h45.48V19.476zM30.43 77.712H17.644v3.48l-8.07-7.538 8.07-7.537v3.48h12.788v8.115zm3.07-9.89v-3.478H20.714v-8.116h12.788V52.75l8.07 7.537-8.07 7.536zm10.963-50.737h-6.15c-1.557 4.52-3.836 8.546-6.785 11.992l4.91 4.73-2.378 6.153-6.532-6.532-9.97 9.875-4.21-4.21L23.545 29.08c-2.252-2.61-4.098-5.49-5.496-8.576l-.64-1.413h6.162l.28.536c1.07 2.04 2.307 3.903 3.683 5.555 2.072-2.467 3.71-5.182 4.89-8.096H10.603v-6.007h13.975V7.164h5.914v3.914h13.974v6.007zM70.153 95.892c2.924 1.866 6.3 2.85 9.76 2.85s6.836-.987 9.758-2.85c2.327-1.482 4.3-3.47 5.778-5.81-1.48-2.337-3.45-4.324-5.777-5.808-.152-.096-.305-.19-.46-.282.387 1.056.597 2.197.597 3.387 0 5.464-4.43 9.895-9.897 9.895-5.466 0-9.896-4.43-9.896-9.896 0-1.19.21-2.332.596-3.388-.153.092-.307.186-.458.282-2.326 1.482-4.298 3.47-5.777 5.81 1.48 2.337 3.452 4.323 5.778 5.808z"/><path d="M79.91 86.37c0 2.05-1.66 3.712-3.71 3.712s-3.712-1.66-3.712-3.71 1.66-3.712 3.71-3.712 3.712 1.66 3.712 3.71z"/><path d="M109.343 24.476v91.734H50.48V24.476h58.863zM79.91 77.712c-8.632 0-16.116 5.027-19.793 12.37 3.677 7.345 11.16 12.372 19.793 12.372 8.632 0 16.116-5.028 19.793-12.37-3.677-7.345-11.16-12.372-19.793-12.372zM91.93 37.37c-3.883 0-6.67 2.025-8.038 5.305-1.203-3.61-4.49-5.306-8.038-5.306-3.442 0-6.013 1.586-7.49 4.208v-3.716H57.76v5.358h3.55v13.952h-3.282v5.358h15.04v-5.358h-4.692v-8.594c0-3.445 1.368-5.85 4.758-5.85 2.79 0 4.21 1.64 4.21 5.905V62.53h10.323v-5.358h-3.265v-8.594c0-3.445 1.368-5.85 4.758-5.85 2.787 0 4.21 1.64 4.21 5.905v13.89h10.322l-.003-5.35h-3.28V45.9c0-5.85-4.05-8.53-8.48-8.53z"/></g><g fill="#1B75BC"><path d="M164.236 59.732h-33.408v7.36h11.776v36.928h9.408V67.092h11.2zM183.96 69.14c-3.968 0-7.232 2.816-8.832 7.552l-.832-6.592h-7.872v33.92h9.088V86.484c1.216-5.44 3.136-8.512 7.296-8.512 1.152 0 1.984.192 3.008.448l1.536-8.768c-1.152-.32-2.176-.512-3.392-.512zM215.012 94.612V80.916c0-7.68-4.032-11.84-13.44-11.84-3.84 0-8.32.832-12.544 2.496l2.048 6.08c3.456-1.152 6.72-1.792 8.96-1.792 4.288 0 6.08 1.344 6.08 5.568v1.664h-3.904c-10.048 0-15.616 4.032-15.616 11.456 0 6.144 4.224 10.496 11.008 10.496 4.032 0 7.744-1.408 10.176-5.12 1.408 3.392 3.968 4.672 7.808 4.992l1.92-6.016c-1.664-.576-2.496-1.536-2.496-4.288zM200.1 98.516c-2.816 0-4.352-1.728-4.352-4.736 0-3.712 2.432-5.504 7.36-5.504h3.008v6.464c-1.408 2.432-3.392 3.776-6.016 3.776zM242.544 69.076c-4.352 0-7.616 1.92-10.368 5.312l-.704-4.288H223.6v33.92h9.088V80.596c1.856-3.008 3.904-4.736 6.528-4.736 2.304 0 3.712 1.088 3.712 4.992v23.168h9.088V79.316c0-6.4-3.52-10.24-9.472-10.24zM271.42 69.076c-8.192 0-13.44 4.352-13.44 10.112 0 5.12 3.2 8.512 10.048 10.432 6.272 1.728 7.488 2.56 7.488 5.12 0 2.304-2.176 3.712-5.568 3.712-3.392 0-6.528-1.344-9.088-3.328l-4.48 4.992c3.2 2.944 7.936 4.928 13.824 4.928 8.064 0 14.656-3.968 14.656-11.008 0-6.016-3.84-8.832-10.624-10.688-5.952-1.728-7.104-2.624-7.104-4.608 0-1.856 1.664-3.072 4.672-3.072 2.944 0 5.696.96 8.448 2.688l3.456-5.184c-3.2-2.56-7.36-4.096-12.288-4.096zM317.32 70.1h-9.344l-6.848 26.816-6.72-26.816h-9.856l11.072 33.92h10.816zM325.652 52.628c-3.264 0-5.504 2.304-5.504 5.312 0 3.008 2.24 5.312 5.504 5.312 3.264 0 5.568-2.304 5.568-5.312 0-3.008-2.304-5.312-5.568-5.312zM330.26 70.1h-9.088v33.92h9.088zM349.984 69.076c-8.192 0-13.44 4.352-13.44 10.112 0 5.12 3.2 8.512 10.048 10.432 6.272 1.728 7.488 2.56 7.488 5.12 0 2.304-2.176 3.712-5.568 3.712-3.392 0-6.528-1.344-9.088-3.328l-4.48 4.992c3.2 2.944 7.936 4.928 13.824 4.928 8.064 0 14.656-3.968 14.656-11.008 0-6.016-3.84-8.832-10.624-10.688-5.952-1.728-7.104-2.624-7.104-4.608 0-1.856 1.664-3.072 4.672-3.072 2.944 0 5.696.96 8.448 2.688l3.456-5.184c-3.2-2.56-7.36-4.096-12.288-4.096zM373.356 52.628c-3.264 0-5.504 2.304-5.504 5.312 0 3.008 2.24 5.312 5.504 5.312 3.264 0 5.568-2.304 5.568-5.312 0-3.008-2.304-5.312-5.568-5.312zm4.608 17.472h-9.088v33.92h9.088zM400.696 69.076c-10.24 0-16.32 7.168-16.32 17.984 0 11.264 6.144 17.984 16.256 17.984 10.176 0 16.256-7.232 16.256-17.984 0-11.264-6.08-17.984-16.192-17.984zm0 6.784c4.416 0 6.72 3.392 6.72 11.2 0 7.744-2.304 11.2-6.784 11.2s-6.784-3.392-6.784-11.2c0-7.744 2.304-11.2 6.848-11.2zM442.244 69.076c-4.352 0-7.616 1.92-10.368 5.312l-.704-4.288H423.3v33.92h9.088V80.596c1.856-3.008 3.904-4.736 6.528-4.736 2.304 0 3.712 1.088 3.712 4.992v23.168h9.088V79.316c0-6.4-3.52-10.24-9.472-10.24z"/></g><path d="M125.98 6.803h142.938v35.74H125.98V6.803z" fill="#1B75BC"/><path d="M251.818 32.663c0 1.24.597 2.222 2.268 2.222 1.965 0 4.058-1.41 4.184-4.613-.917-.147-1.843-.23-2.77-.252-1.974-.002-3.682.552-3.682 2.643z" fill="#FFF"/><path d="M125 0v52.628h145.6L270.4 0zm41.238 38.386h-8.06V27.54c0-3.33-1.112-4.614-3.288-4.614-2.648 0-3.716 1.88-3.716 4.57v6.71h2.55v4.185h-8.062V27.54c0-3.33-1.108-4.614-3.287-4.614-2.648 0-3.716 1.88-3.716 4.57v6.71h3.662v4.185h-11.744v-4.183h2.56V23.312h-2.77v-4.185h8.28v2.902c1.155-2.05 3.162-3.288 5.85-3.288 2.77 0 5.338 1.325 6.278 4.144 1.068-2.562 3.245-4.144 6.278-4.144 3.458 0 6.62 2.093 6.62 6.663v8.802h2.562zm12.256.426c-5.935 0-10.036-3.63-10.036-9.78 0-5.637 3.416-10.292 10.328-10.292 6.913 0 10.293 4.655 10.293 10.036.004 6.15-4.437 10.038-10.586 10.038zm30.663-.426H192.33l-.555-2.904 10.58-12.173h-6.02l-.855 2.99-3.972-.426.682-6.75h16.93l.425 2.905-10.68 12.177h6.223l.897-2.99 4.356.426zm10.42 0h-5.767V31.47h5.766zm0-12.344h-5.767v-6.915h5.766zm3.022 12.344l8.335-29.37h5.423l-8.328 29.37zm11.19 0l8.33-29.37h5.423l-8.323 29.37zm28.697.426c-2.562 0-3.97-1.496-4.227-3.844-1.11 1.965-3.076 3.844-6.192 3.844-2.77 0-5.935-1.496-5.935-5.51 0-4.74 4.57-5.85 8.968-5.85 1.057-.008 2.113.05 3.162.172v-.64c0-1.964-.043-4.312-3.16-4.312-1.155 0-2.052.086-2.95.554l-.712 2.733-4.398-.472.854-4.995c3.373-1.368 5.08-1.764 8.243-1.764 4.143 0 7.644 2.136 7.644 6.534v8.37c0 1.112.426 1.498 1.325 1.498.274-.005.548-.048.81-.13l.043 2.906c-1.065.58-2.256.89-3.47.906z" fill="#FFF"/><path d="M178.706 22.97c-2.82 0-4.57 2.09-4.57 5.723 0 3.33 1.537 5.892 4.534 5.892 2.862 0 4.74-2.305 4.74-5.978-.006-3.887-2.097-5.638-4.704-5.638z" fill="#FFF"/></svg>