<svg xmlns="http://www.w3.org/2000/svg" width="954.505" height="242.879" viewBox="0, 0, 456.701, 116.21"><g fill="#1C75BC"><path d="M45.48 19.476h13.384V0H0v91.734h45.48V19.476zM30.43 77.712H17.644v3.48l-8.07-7.538 8.07-7.537v3.48h12.788v8.115zm3.07-9.89v-3.478H20.714v-8.116h12.788V52.75l8.07 7.537-8.07 7.536zm10.963-50.737h-6.15c-1.557 4.52-3.836 8.546-6.785 11.992l4.91 4.73-2.378 6.153-6.532-6.532-9.97 9.875-4.21-4.21L23.545 29.08c-2.252-2.61-4.098-5.49-5.496-8.576l-.64-1.413h6.16l.28.537c1.07 2.04 2.308 3.903 3.684 5.555 2.072-2.467 3.71-5.182 4.89-8.096h-21.82V11.08h13.974V7.163h5.914v3.914h13.974v6.007zm25.69 78.807c2.924 1.866 6.3 2.85 9.76 2.85s6.836-.987 9.758-2.85c2.328-1.482 4.3-3.47 5.78-5.81-1.48-2.337-3.45-4.324-5.778-5.808-.152-.096-.305-.19-.46-.282.387 1.056.597 2.197.597 3.387 0 5.463-4.43 9.894-9.898 9.894-5.466 0-9.896-4.43-9.896-9.896 0-1.19.21-2.332.596-3.388-.153.092-.307.186-.458.282-2.326 1.482-4.298 3.47-5.777 5.81 1.48 2.337 3.452 4.323 5.778 5.808z"/><path d="M79.91 86.37c0 2.05-1.66 3.712-3.71 3.712s-3.712-1.66-3.712-3.71 1.66-3.712 3.71-3.712 3.712 1.66 3.712 3.71z"/><path d="M109.343 24.476v91.734H50.48V24.476h58.863zM79.91 77.712c-8.632 0-16.116 5.027-19.793 12.37 3.677 7.345 11.16 12.372 19.793 12.372 8.632 0 16.116-5.028 19.793-12.37-3.677-7.345-11.16-12.372-19.793-12.372zM91.93 37.37c-3.883 0-6.67 2.025-8.038 5.305-1.203-3.61-4.49-5.306-8.038-5.306-3.442 0-6.013 1.585-7.49 4.207V37.86H57.76v5.36h3.55v13.95h-3.282v5.36h15.04v-5.36h-4.692v-8.593c0-3.445 1.368-5.85 4.758-5.85 2.79 0 4.21 1.64 4.21 5.905V62.53h10.323v-5.358h-3.265v-8.594c0-3.445 1.368-5.85 4.758-5.85 2.787 0 4.21 1.64 4.21 5.905v13.89h10.322l-.003-5.35h-3.28V45.9c0-5.85-4.05-8.53-8.48-8.53z"/></g><path d="M124.313 55h330.062v55H124.313V55z" fill="#FFF"/><path d="M124.313 7.188h156.312v42.124H124.313V7.188z"/><path d="M153.23 96.008q-1.225 8.84-9.59 8.84-4.555 0-6.97-2.584-2.413-2.584-2.413-7.004V77.716h-4.896v-3.808h4.897v-9.724h4.76v9.724h11.832v3.808h-11.833v16.932q0 2.72 1.19 4.386t3.91 1.666q1.768 0 3.298-1.088t2.21-4.76zM171.88 73.364q3.265 0 5.17 1.564l1.155 7.616-3.876.476-1.157-5.168q-1.156-.408-2.312-.408-2.65 0-4.42 2.21-1.767 2.21-1.767 5.746v14.892h7.004v3.876H154.61v-3.876h5.303V77.784h-5.44v-3.876h9.928v5.44q.885-2.516 2.89-4.25 2.007-1.734 4.59-1.734zM185.637 76.22q2.38-1.564 5.032-2.244 2.65-.68 5.643-.68 10.812 0 10.812 10.132v14.416q0 3.264 2.584 3.264 1.155 0 2.04-.408l.067 3.128q-1.836 1.02-3.944 1.02-5.372 0-5.508-6.12v-.136q-1.428 2.448-4.046 4.352-2.62 1.904-6.29 1.904-2.993 0-6.087-1.836t-3.094-6.664q0-5.712 4.52-7.514 4.523-1.802 9.623-1.802 1.36 0 2.754.068t2.618.204v-2.72q0-3.264-1.394-5.304-1.393-2.04-5.473-2.04-3.332 0-5.848 1.224l-1.157 5.236-3.944-.476zm16.728 16.592V90.5q-1.292-.068-2.72-.204-1.428-.136-2.924-.136-3.4 0-6.153 1.054-2.754 1.054-2.754 4.59 0 2.924 1.836 4.012 1.835 1.088 3.807 1.088 3.128 0 5.882-2.176 2.753-2.176 3.025-5.916zM250.325 104.168h-15.3v-3.876h5.236V86.216q0-4.896-1.97-6.902-1.973-2.006-5.033-2.006-4.08 0-6.562 2.686t-2.618 6.154v14.144h5.304v3.876h-15.367v-3.876h5.304V77.784h-5.44v-3.876h10.2v5.372q3.264-5.984 10.608-5.984 4.42 0 7.412 2.72t2.992 8.772v15.504h5.235zM277.07 95.396q0 4.42-3.707 6.936-3.706 2.516-9.146 2.516-3.196 0-6.358-.85-3.163-.85-5.135-2.142l.952-6.868 3.808.408-.204 4.012q3.13 1.496 6.733 1.496 3.196 0 5.678-1.258 2.483-1.258 2.483-3.842 0-2.516-1.904-3.536-1.905-1.02-4.727-1.496t-5.678-1.156q-2.856-.68-4.76-2.346t-1.904-5.202q0-4.828 3.537-6.8 3.536-1.972 7.684-1.972 3.13 0 5.883.816 2.754.816 4.658 1.972l.75 7.072-3.945.476-.748-4.896q-2.856-1.496-6.188-1.496-2.857 0-4.693 1.088-1.836 1.088-1.836 3.4 0 2.38 1.905 3.366 1.904.986 4.692 1.428 2.788.442 5.576 1.122 2.788.68 4.692 2.414 1.904 1.734 1.904 5.338zM312.72 77.784h-3.67l-11.085 26.384h-3.672l-11.56-26.384h-3.536v-3.876h13.94v3.876H287.9l8.433 19.924h.408l7.55-19.924h-4.83v-3.876h13.26zM319.473 66.088V59.9h5.168v6.188zm10.54 38.08h-15.368v-3.876h5.304V77.784h-5.44v-3.876h10.2v26.384h5.303zM357.505 95.396q0 4.42-3.706 6.936-3.707 2.516-9.147 2.516-3.196 0-6.358-.85-3.162-.85-5.134-2.142l.953-6.868 3.808.408-.203 4.012q3.128 1.496 6.732 1.496 3.195 0 5.677-1.258 2.482-1.258 2.482-3.842 0-2.516-1.905-3.536-1.904-1.02-4.726-1.496-2.823-.476-5.68-1.156-2.855-.68-4.76-2.346-1.903-1.666-1.903-5.202 0-4.828 3.536-6.8 3.536-1.972 7.684-1.972 3.128 0 5.882.816 2.753.816 4.657 1.972l.748 7.072-3.944.476-.747-4.896q-2.856-1.496-6.188-1.496-2.856 0-4.692 1.088-1.836 1.088-1.836 3.4 0 2.38 1.904 3.366 1.905.986 4.693 1.428 2.788.442 5.576 1.122 2.787.68 4.69 2.414 1.905 1.734 1.905 5.338zM366.297 66.088V59.9h5.168v6.188zm10.54 38.08H361.47v-3.876h5.303V77.784h-5.44v-3.876h10.2v26.384h5.304zM409.565 89.004q0 6.868-4.08 11.356-4.08 4.488-11.084 4.488-6.867 0-10.777-4.352-3.91-4.352-3.91-11.22 0-6.596 3.808-11.322 3.81-4.726 11.153-4.726 7.412 0 11.152 4.658 3.74 4.658 3.74 11.118zm-5.032-.068q0-5.168-2.618-8.398-2.618-3.23-7.378-3.23t-7.31 3.332q-2.55 3.332-2.55 8.364 0 4.964 2.516 8.364 2.516 3.4 7.344 3.4t7.412-3.366q2.583-3.366 2.583-8.466zM449.433 104.168h-15.3v-3.876h5.236V86.216q0-4.896-1.973-6.902-1.972-2.006-5.032-2.006-4.08 0-6.562 2.686t-2.618 6.154v14.144h5.304v3.876h-15.37v-3.876h5.305V77.784h-5.44v-3.876h10.2v5.372q3.264-5.984 10.608-5.984 4.42 0 7.412 2.72t2.992 8.772v15.504h5.236z" fill="#1B75BC"/><path d="M167.698 43.875h-8.694V32.19q0-2.667-.897-3.817-.897-1.15-2.645-1.15-2.116 0-3.06 1.38-.942 1.38-.942 3.542v7.268h2.76v4.462h-8.694V32.19q0-2.667-.897-3.817-.898-1.15-2.646-1.15-2.162 0-3.082 1.38-.92 1.38-.92 3.542v7.268h3.956v4.462h-12.65v-4.462h2.76V27.637h-2.714V23.13h8.648v3.127q1.978-3.542 6.302-3.542 2.254 0 4.14 1.104 1.886 1.103 2.622 3.357 1.84-4.462 6.762-4.462 2.806 0 4.968 1.748t2.162 5.428v9.523h2.76zM191.388 33.525q0 4.922-3.22 7.866-3.22 2.945-8.188 2.945-4.784 0-7.797-2.783t-3.013-7.797q0-4.554 2.76-7.82t8.372-3.266q5.612 0 8.35 3.242 2.736 3.243 2.736 7.613zm-6.118-.184q0-3.173-1.472-4.645-1.472-1.472-3.588-1.472-2.3 0-3.61 1.633-1.312 1.633-1.312 4.577 0 2.668 1.22 4.508 1.218 1.84 3.656 1.84 2.3 0 3.703-1.724 1.403-1.725 1.403-4.715zM212.088 43.875h-18.124l-.598-3.128 11.132-13.156h-6.21l-.92 3.175-4.278-.368.736-7.268h18.216l.46 3.127-11.454 13.156h6.67l.966-3.266 4.692.46zM216.964 30.58v-7.45h6.164v7.45zm0 13.295v-7.452h6.164v7.452zM242.264 12.227l-8.97 31.648h-5.842l8.97-31.648zM254.04 12.227l-8.97 31.648h-5.842l8.97-31.648zM256.248 24.6q2.714-1.103 4.53-1.494 1.818-.39 4.348-.39 3.358 0 5.796 1.747 2.438 1.748 2.438 5.29v9.016q0 1.61 1.426 1.61.414 0 .874-.14l.046 3.13q-1.794.965-3.726.965-4.094 0-4.554-4.094v-.045q-.874 1.564-2.507 2.852-1.634 1.288-4.164 1.288-2.254 0-4.324-1.334-2.07-1.333-2.07-4.6 0-3.817 3.06-5.06 3.058-1.24 6.6-1.24 1.978 0 3.404.183v-.69q0-1.61-.437-3.128-.438-1.518-2.968-1.518-.92 0-1.68.115-.758.115-1.494.483l-.782 2.944-4.738-.507zm11.178 10.81v-.275q-.736-.092-1.495-.184-.758-.09-1.494-.09-1.564 0-2.76.574-1.196.575-1.196 2.277 0 1.013.552 1.703.552.69 1.886.69 1.564 0 2.92-1.127 1.358-1.127 1.588-3.565z" fill="#FFF"/></svg>